<?xml version="1.0" encoding="UTF-8"?>
<svg id="Layer_1" data-name="Layer 1" xmlns="http://www.w3.org/2000/svg" viewBox="0 0 24.64 30.89">
  <defs>
    <style>
      .cls-1 {
        fill: none;
        stroke: #a8a3a3;
        stroke-miterlimit: 10;
        stroke-width: .25px;
      }
    </style>
  </defs>
  <path class="cls-1" d="M12.31,3.96c-.18-.03,1.84.11,2.74.72l3.46-3.2,1.83-1.26,1.93,10.91,1.63,4.02-.65-.17,1.1,1.54-1.23-.31.1,2.98-1.1-.65c0,.29-.29,2.75-.29,2.75l-.85-.52-1.46,3.81-.23.21-.33-.48-2.75,3.48-.13-.9-1.48,1.79-.71-1.6-1.56,3.49-1.55-3.47-.71,1.6-1.48-1.79-.13.9-2.75-3.48-.33.48-.23-.21-1.46-3.81-.85.52s-.29-2.46-.29-2.75l-1.1.65.1-2.98-1.23.31,1.1-1.54-.65.17,1.63-4.02L4.31.24l1.83,1.26,3.46,3.2c.83-.45,1.86-.73,2.71-.75"/>
  <polygon class="cls-1" points="14.94 5.76 15.57 5.76 16.53 4.23 14.94 5.76"/>
  <polygon class="cls-1" points="17.46 4.99 18.56 2.23 16.08 5.91 17.33 7.12 17.46 4.99"/>
  <polygon class="cls-1" points="19.81 1.61 17.84 5 17.84 7.67 19.81 8.52 19.81 1.61"/>
  <polygon class="cls-1" points="20.28 5.9 20.27 8.98 19.93 8.98 21.07 9.85 20.28 5.9"/>
  <polygon class="cls-1" points="14.52 6.51 13.87 7.38 15.88 8.72 17.12 7.88 15.49 6.36 14.52 6.51"/>
  <path class="cls-1" d="M14.93,8.9l.78.48.34.68s-1.34.15-1.68,1.19c0,0-.77-.32.56-2.35Z"/>
  <polygon class="cls-1" points="19.26 9.43 16.57 9.74 16.19 8.99 17.61 8.17 19.26 9.43"/>
  <polygon class="cls-1" points="20.23 9.88 20.23 11.3 16.79 10.11 20.23 9.88"/>
  <path class="cls-1" d="M16.53,10.79c-1.26.19-1.31.71-1.79,1.21-.25.26-.24.16-.24,0s.11-.31.21-.43c.26-.31.82-.9,1.37-.91l.44.13Z"/>
  <path class="cls-1" d="M14.94,12.47l.44-.84s.03-.04.05-.04c.18-.06.99-.33,1.54-.19.62.16-1.84,1.54-2.03,1.07Z"/>
  <polygon class="cls-1" points="21.07 10.79 20.95 11.5 21.82 12.25 21.07 10.79"/>
  <polygon class="cls-1" points="20.11 11.72 20.11 13.05 17.57 10.89 20.11 11.72"/>
  <polygon class="cls-1" points="20.8 11.97 20.66 13.21 22.84 14.14 20.8 11.97"/>
  <polygon class="cls-1" points="14.3 13.21 15.05 14.67 14.3 15.66 14.3 13.21"/>
  <polygon class="cls-1" points="14.62 16.15 14.62 17.34 15.31 17.66 14.62 16.15"/>
  <path class="cls-1" d="M12.5,18.33v.55h.48c.23,0,.44-.14.52-.36l.13-.34-1.09.1s-.04.02-.04.05Z"/>
  <path class="cls-1" d="M13.41,19.11c-.06.02-.12.04-.17.07-.21.14-.62.46.18.42s1.49-.55,1.72-1.06c.11-.24,0-.51-.23-.63l-.08-.04s-.53-.25-.6.23c-.07.44-.52.94-.81,1.02Z"/>
  <path class="cls-1" d="M12.71,20.46c-.28-.13-.19-.27-.1-.35.05-.04.12-.05.19-.03.45.18.84.06.99,0,.05-.02.11-.02.15,0,.39.2-.08.38-.08.38,0,0-.67.22-1.14,0Z"/>
  <path class="cls-1" d="M14.76,13.05l.74,1.38.55-.19.92-1.98s-1.56,1.01-2.21.8Z"/>
  <path class="cls-1" d="M17.75,11.86s.32,2.13-.36,3.68c0,0-1.74.95-1.63,1.34,0,0-.09.56-.32-.03s-.27-.82-.27-.82c0,0-.28-1.13,1.32-1.55l1.25-2.63Z"/>
  <path class="cls-1" d="M16,17.43s.31-.8.79-.92-.48.92-.48.92c0,0-.3.31-.3,0Z"/>
  <polygon class="cls-1" points="18.65 12.57 18.65 13.95 19.93 14.69 20.11 13.63 18.65 12.57"/>
  <path class="cls-1" d="M18.51,14.35s-.3,1.57-.68,1.93,1.88-1.13,1.88-1.13l-1.19-.8Z"/>
  <polygon class="cls-1" points="20.66 13.73 20.6 14.88 22.51 15.34 21.51 14.14 20.66 13.73"/>
  <polygon class="cls-1" points="20.31 15.34 19.97 15.99 22.48 17.85 22.23 15.92 20.31 15.34"/>
  <polygon class="cls-1" points="19.7 16.43 18.99 17.56 21.29 20.05 21.38 17.85 19.7 16.43"/>
  <path class="cls-1" d="M18.74,18.33s-.35,1.65.62,4.32l1.08-2.35-1.7-1.97Z"/>
  <polygon class="cls-1" points="18.23 20.62 18.72 23.36 16.93 25.48 18.23 20.62"/>
  <path class="cls-1" d="M18.92,16.5c-.89.88-1.03,2.63-1.03,2.63l-.97,1.43c-.52.75-.4-.07-.4-.07l.55-3.02,2-1.46s.33.02-.16.5Z"/>
  <path class="cls-1" d="M16.22,18.54s.2.76-.71,2.39l-1.35,2.25-1.49-1.58,1.24-.19,2.3-2.87Z"/>
  <polygon class="cls-1" points="15.59 21.47 12.77 28.08 12.59 22.27 14.12 23.95 15.59 21.47"/>
  <path class="cls-1" d="M17.46,21.05s-.98,3.17-.94,3.61l-1.68,2.42s-.46-.34-.38-1.26,3.01-5.2,2.99-4.77Z"/>
  <path class="cls-1" d="M12.31,4.37c-.89-.04-1.62.3-2.41.83l1.32,2.08,1.1-.68,1.11.65,1.32-2.08c-.79-.53-1.55-.85-2.44-.81"/>
  <polygon class="cls-1" points="9.7 5.78 9.07 5.78 8.1 4.26 9.7 5.78"/>
  <polygon class="cls-1" points="7.18 5.02 6.08 2.25 8.56 5.93 7.31 7.14 7.18 5.02"/>
  <polygon class="cls-1" points="4.83 1.64 6.79 5.02 6.79 7.7 4.83 8.55 4.83 1.64"/>
  <polygon class="cls-1" points="4.35 5.93 4.37 9.01 4.71 9.01 3.57 9.88 4.35 5.93"/>
  <polygon class="cls-1" points="12.31 13.6 13.87 11.96 13.55 10.44 14.35 8.72 12.31 7.56 10.28 8.74 11.08 10.46 10.77 11.99 12.31 13.6"/>
  <polygon class="cls-1" points="10.11 6.53 10.77 7.41 8.76 8.74 7.52 7.9 9.14 6.39 10.11 6.53"/>
  <path class="cls-1" d="M9.71,8.92l-.78.48-.34.68s1.34.15,1.68,1.19c0,0,.77-.32-.56-2.35Z"/>
  <polygon class="cls-1" points="5.37 9.45 8.06 9.77 8.45 9.02 7.02 8.19 5.37 9.45"/>
  <polygon class="cls-1" points="4.41 9.91 4.41 11.33 7.85 10.14 4.41 9.91"/>
  <path class="cls-1" d="M8.1,10.82c1.26.19,1.31.71,1.79,1.21.25.26.24.16.24,0s-.11-.31-.21-.43c-.26-.31-.82-.9-1.37-.91l-.44.13Z"/>
  <path class="cls-1" d="M9.7,12.5l-.44-.84s-.03-.04-.05-.04c-.18-.06-.99-.33-1.54-.19-.62.16,1.84,1.54,2.03,1.07Z"/>
  <polygon class="cls-1" points="3.57 10.82 3.69 11.53 2.82 12.28 3.57 10.82"/>
  <polygon class="cls-1" points="4.53 11.74 4.53 13.08 7.07 10.92 4.53 11.74"/>
  <polygon class="cls-1" points="3.84 11.99 3.97 13.23 1.79 14.17 3.84 11.99"/>
  <polygon class="cls-1" points="10.33 13.23 9.59 14.69 10.33 15.68 10.33 13.23"/>
  <path class="cls-1" d="M12.31,15.99c-.54.02-.91.03-1.37.19,0,0,.47-1.47,0-3.1l1.37,1.26,1.4-1.29c-.47,1.63,0,3.1,0,3.1-.46-.16-.84-.16-1.4-.16"/>
  <path class="cls-1" d="M12.31,16.27c-.56-.03-.93.03-1.37.19,0,0-.37.17-.07.35.04.02.09.03.13.02.15-.04.58-.11.99.02.12.01.32.03.28.03"/>
  <polygon class="cls-1" points="10.02 16.18 10.02 17.37 9.32 17.69 10.02 16.18"/>
  <path class="cls-1" d="M12.09,18.33v.55h-.46c-.24,0-.46-.15-.55-.38l-.12-.32,1.09.1s.04.02.04.05Z"/>
  <path class="cls-1" d="M11.22,19.13c.06.02.12.04.18.07.21.14.61.46-.19.42s-1.56-.6-1.75-1.15c-.07-.2.02-.43.22-.53l.13-.07s.53-.25.6.23c.07.44.51.94.81,1.02Z"/>
  <path class="cls-1" d="M12.31,17.2c.14.02-1.87-.27-1.87.16,0,.43.85.45.85.45l1.13.02.93-.05s.85-.02.85-.45c0-.43-2.01-.12-1.89-.14"/>
  <path class="cls-1" d="M11.93,20.49c.29-.13.19-.27.1-.35-.05-.04-.12-.05-.18-.03-.45.19-.84.06-.99,0-.05-.02-.11-.02-.15,0-.39.2.08.38.08.38,0,0,.67.22,1.14,0Z"/>
  <path class="cls-1" d="M9.88,13.08l-.74,1.38-.55-.19-.92-1.98s1.56,1.01,2.21.8Z"/>
  <path class="cls-1" d="M6.89,11.89s-.32,2.13.36,3.68c0,0,1.74.95,1.63,1.34,0,0,.09.56.32-.03s.27-.82.27-.82c0,0,.28-1.13-1.32-1.55l-1.25-2.63Z"/>
  <path class="cls-1" d="M8.64,17.45s-.31-.8-.79-.92.48.92.48.92c0,0,.3.31.3,0Z"/>
  <polygon class="cls-1" points="5.99 12.59 5.99 13.98 4.71 14.71 4.53 13.65 5.99 12.59"/>
  <path class="cls-1" d="M6.13,14.37s.3,1.57.68,1.93-1.88-1.13-1.88-1.13l1.19-.8Z"/>
  <polygon class="cls-1" points="3.97 13.75 4.04 14.91 2.13 15.36 3.13 14.17 3.97 13.75"/>
  <polygon class="cls-1" points="4.33 15.36 4.67 16.01 2.16 17.88 2.41 15.95 4.33 15.36"/>
  <polygon class="cls-1" points="4.94 16.45 5.64 17.59 3.35 20.07 3.25 17.88 4.94 16.45"/>
  <path class="cls-1" d="M5.9,18.36s.35,1.65-.62,4.32l-1.08-2.35,1.7-1.97Z"/>
  <polygon class="cls-1" points="6.41 20.65 5.92 23.39 7.71 25.5 6.41 20.65"/>
  <path class="cls-1" d="M5.72,16.52c.89.88,1.03,2.63,1.03,2.63l.97,1.43c.52.75.4-.07.4-.07l-.55-3.02-2-1.46s-.33.02.16.5Z"/>
  <path class="cls-1" d="M8.42,18.56s-.2.76.71,2.39l1.35,2.25,1.49-1.58-1.24-.19-2.3-2.87Z"/>
  <polygon class="cls-1" points="9.05 21.49 11.86 28.1 12.05 22.3 10.52 23.97 9.05 21.49"/>
  <path class="cls-1" d="M7.18,21.08s.98,3.17.94,3.61l1.68,2.42s.46-.34.38-1.26-3.01-5.2-2.99-4.77Z"/>
  <path class="cls-1" d="M12.24,16.27c.56-.03.93.03,1.37.19,0,0,.37.17.07.35-.04.02-.09.03-.13.02-.15-.04-.58-.11-1.06.02-.09.01-.18.03-.23.03"/>
</svg>